<svg width="42" height="42" viewBox="0 0 42 42" fill="none" xmlns="http://www.w3.org/2000/svg">
<circle cx="21" cy="21" r="21" fill="url(#paint0_linear_1_1741)" fill-opacity="0.3"/>
<circle cx="21" cy="21" r="20.5256" stroke="url(#paint1_linear_1_1741)" stroke-opacity="0.2" stroke-width="0.948718"/>
<path d="M24.6662 11.7336C24.8142 11.7336 24.957 11.792 25.0617 11.8967C25.1662 12.0013 25.2247 12.1434 25.2248 12.2913V13.5667H27.8752C28.5092 13.5667 29.1172 13.8186 29.5656 14.2668C30.0141 14.7154 30.2668 15.3239 30.2668 15.9583V27.8752C30.2667 28.5094 30.014 29.1172 29.5656 29.5657C29.1171 30.0141 28.5093 30.2668 27.8752 30.2668H14.1252C13.4913 30.2661 12.883 30.0138 12.4347 29.5657C11.9864 29.1174 11.7344 28.5092 11.7336 27.8752V15.9583L11.7453 15.7219C11.8002 15.1747 12.0424 14.6601 12.4347 14.2678C12.883 13.8196 13.4912 13.5674 14.1252 13.5667H16.7746V12.2913C16.7747 12.1433 16.834 12.0014 16.9386 11.8967C17.0433 11.7921 17.1852 11.7336 17.3332 11.7336C17.4812 11.7336 17.623 11.7921 17.7277 11.8967C17.8323 12.0014 17.8917 12.1433 17.8918 12.2913V13.5667H24.1086V12.2913C24.1086 12.1433 24.167 12.0014 24.2716 11.8967C24.3763 11.7921 24.5182 11.7337 24.6662 11.7336ZM12.8498 27.8752C12.8498 28.2132 12.9839 28.5376 13.2228 28.7766C13.4619 29.0157 13.787 29.1497 14.1252 29.1497H27.8752C28.2132 29.1496 28.5375 29.0156 28.7765 28.7766C29.0156 28.5376 29.1495 28.2133 29.1496 27.8752V20.1829H12.8498V27.8752ZM14.1252 14.6829C13.4196 14.6829 12.8498 15.2544 12.8498 15.9583V19.0667H29.1496V15.9583C29.1496 15.6202 29.0155 15.296 28.7765 15.0569C28.5375 14.8179 28.2132 14.6829 27.8752 14.6829H25.2248V15.9583C25.2248 16.1062 25.1662 16.2481 25.0617 16.3528C24.957 16.4575 24.8142 16.5168 24.6662 16.5168C24.5182 16.5168 24.3763 16.4574 24.2716 16.3528C24.167 16.2481 24.1086 16.1063 24.1086 15.9583V14.6829H17.8918V15.9583C17.8918 16.1063 17.8324 16.2481 17.7277 16.3528C17.623 16.4575 17.4812 16.5168 17.3332 16.5168C17.1851 16.5168 17.0433 16.4575 16.9386 16.3528C16.8339 16.2481 16.7746 16.1063 16.7746 15.9583V14.6829H14.1252Z" fill="white" stroke="white" stroke-width="0.2"/>
<defs>
<linearGradient id="paint0_linear_1_1741" x1="21" y1="-27.8108" x2="21" y2="108.405" gradientUnits="userSpaceOnUse">
<stop stop-color="#66CCFF"/>
<stop offset="0.467671" stop-color="#66CCFF" stop-opacity="0"/>
</linearGradient>
<linearGradient id="paint1_linear_1_1741" x1="21" y1="-72.9324" x2="21" y2="80.027" gradientUnits="userSpaceOnUse">
<stop stop-color="#3ABDFF"/>
<stop offset="0.716291" stop-color="#66CCFF" stop-opacity="0"/>
</linearGradient>
</defs>
</svg>
