<svg width="16" height="16" viewBox="0 0 16 16" fill="none" xmlns="http://www.w3.org/2000/svg">
<g clip-path="url(#clip0_1_1635)">
<path d="M5.51333 15.1667H2.82C1.48 15.1667 0.833333 14.5467 0.833333 13.2667V2.73337C0.833333 1.45337 1.48667 0.833374 2.82 0.833374H5.51333C6.85333 0.833374 7.5 1.45337 7.5 2.73337V13.2667C7.5 14.5467 6.84667 15.1667 5.51333 15.1667ZM2.82 1.83337C1.97333 1.83337 1.83333 2.06004 1.83333 2.73337V13.2667C1.83333 13.94 1.97333 14.1667 2.82 14.1667H5.51333C6.36 14.1667 6.5 13.94 6.5 13.2667V2.73337C6.5 2.06004 6.36 1.83337 5.51333 1.83337H2.82Z" fill="#30BDEE"/>
<path d="M13.18 9.16671H10.4867C9.14667 9.16671 8.5 8.54671 8.5 7.26671V2.73337C8.5 1.45337 9.15333 0.833374 10.4867 0.833374H13.18C14.52 0.833374 15.1667 1.45337 15.1667 2.73337V7.26671C15.1667 8.54671 14.5133 9.16671 13.18 9.16671ZM10.4867 1.83337C9.64 1.83337 9.5 2.06004 9.5 2.73337V7.26671C9.5 7.94004 9.64 8.16671 10.4867 8.16671H13.18C14.0267 8.16671 14.1667 7.94004 14.1667 7.26671V2.73337C14.1667 2.06004 14.0267 1.83337 13.18 1.83337H10.4867Z" fill="#30BDEE"/>
<path d="M13.18 15.1666H10.4867C9.14667 15.1666 8.5 14.5466 8.5 13.2666V12.0666C8.5 10.7866 9.15333 10.1666 10.4867 10.1666H13.18C14.52 10.1666 15.1667 10.7866 15.1667 12.0666V13.2666C15.1667 14.5466 14.5133 15.1666 13.18 15.1666ZM10.4867 11.1666C9.64 11.1666 9.5 11.3933 9.5 12.0666V13.2666C9.5 13.94 9.64 14.1666 10.4867 14.1666H13.18C14.0267 14.1666 14.1667 13.94 14.1667 13.2666V12.0666C14.1667 11.3933 14.0267 11.1666 13.18 11.1666H10.4867Z" fill="#30BDEE"/>
</g>
<defs>
<clipPath id="clip0_1_1635">
<rect width="16" height="16" fill="white"/>
</clipPath>
</defs>
</svg>
