<svg width="16" height="16" viewBox="0 0 16 16" fill="none" xmlns="http://www.w3.org/2000/svg">
<path d="M0.666504 11.1666C0.666504 10.3709 0.982573 9.60789 1.54518 9.04529C2.10779 8.48269 2.87084 8.16663 3.66649 8.16663H9.66646C10.4621 8.16663 11.2252 8.48269 11.7878 9.04529C12.3504 9.60789 12.6664 10.3709 12.6664 11.1666C12.6664 11.5644 12.5084 11.9459 12.2271 12.2272C11.9458 12.5085 11.5643 12.6665 11.1664 12.6665H2.1665C1.76867 12.6665 1.38714 12.5085 1.10584 12.2272C0.824538 11.9459 0.666504 11.5644 0.666504 11.1666Z" stroke="white" stroke-linejoin="round"/>
<path d="M6.66647 5.16643C7.90911 5.16643 8.91646 4.15909 8.91646 2.91647C8.91646 1.67385 7.90911 0.666504 6.66647 0.666504C5.42384 0.666504 4.41648 1.67385 4.41648 2.91647C4.41648 4.15909 5.42384 5.16643 6.66647 5.16643Z" stroke="white"/>
</svg>
