<svg width="42" height="42" viewBox="0 0 42 42" fill="none" xmlns="http://www.w3.org/2000/svg">
<circle cx="21" cy="21" r="21" fill="url(#paint0_linear_1_1748)" fill-opacity="0.3"/>
<circle cx="21" cy="21" r="20.5256" stroke="url(#paint1_linear_1_1748)" stroke-opacity="0.2" stroke-width="0.948718"/>
<path d="M28.9102 15.123L25.0195 15.5918C24.8906 15.6074 24.8359 15.7656 24.9277 15.8574L26.0859 17.0156L21.6719 21.4297L19.6836 19.4433C19.5605 19.3203 19.3633 19.3222 19.2422 19.4433L12.959 25.7285C12.9299 25.7579 12.9136 25.7975 12.9136 25.8388C12.9136 25.8802 12.9299 25.9198 12.959 25.9492L13.8379 26.832C13.8984 26.8925 13.998 26.8925 14.0586 26.832L19.4629 21.4297L21.4492 23.416C21.5723 23.5371 21.7695 23.5371 21.8906 23.416L27.1914 18.1191L28.3496 19.2773C28.3704 19.298 28.3965 19.3124 28.425 19.3189C28.4536 19.3255 28.4834 19.3238 28.5111 19.3143C28.5387 19.3047 28.5632 19.2876 28.5816 19.2648C28.6 19.2421 28.6117 19.2146 28.6152 19.1855L29.084 15.2949C29.0977 15.1953 29.0117 15.1093 28.9102 15.123Z" fill="white"/>
<defs>
<linearGradient id="paint0_linear_1_1748" x1="21" y1="-27.8108" x2="21" y2="108.405" gradientUnits="userSpaceOnUse">
<stop stop-color="#66CCFF"/>
<stop offset="0.467671" stop-color="#66CCFF" stop-opacity="0"/>
</linearGradient>
<linearGradient id="paint1_linear_1_1748" x1="21" y1="-72.9324" x2="21" y2="80.027" gradientUnits="userSpaceOnUse">
<stop stop-color="#3ABDFF"/>
<stop offset="0.716291" stop-color="#66CCFF" stop-opacity="0"/>
</linearGradient>
</defs>
</svg>
